<mxfile host="app.diagrams.net" modified="2024-05-30T02:36:39.215Z" agent="Mozilla/5.0 (Windows NT 10.0; Win64; x64) AppleWebKit/537.36 (KHTML, like Gecko) Chrome/125.0.0.0 Safari/537.36" etag="ZuIRuIxCDZt2pA0Ndshj" version="24.4.10" type="github">
  <diagram name="EXERCISE-1" id="jf3Z4JMMC97Lukkn_Zwi">
    <mxGraphModel dx="1050" dy="653" grid="1" gridSize="10" guides="1" tooltips="1" connect="1" arrows="1" fold="1" page="1" pageScale="1" pageWidth="827" pageHeight="1169" math="0" shadow="0">
      <root>
        <mxCell id="0" />
        <mxCell id="1" parent="0" />
        <mxCell id="pzWbAbZhniXZM056PuHU-1" value="EXERCISE 11 P2" style="text;html=1;align=center;verticalAlign=middle;resizable=0;points=[];autosize=1;strokeColor=none;fillColor=none;" vertex="1" parent="1">
          <mxGeometry x="310" width="120" height="30" as="geometry" />
        </mxCell>
        <mxCell id="pzWbAbZhniXZM056PuHU-2" style="edgeStyle=orthogonalEdgeStyle;rounded=0;orthogonalLoop=1;jettySize=auto;html=1;exitX=0;exitY=0.5;exitDx=0;exitDy=0;entryX=0;entryY=0.5;entryDx=0;entryDy=0;" edge="1" parent="1">
          <mxGeometry relative="1" as="geometry">
            <mxPoint x="302.5" y="1310" as="targetPoint" />
            <Array as="points">
              <mxPoint x="-180" y="2250" />
              <mxPoint x="-180" y="1310" />
            </Array>
          </mxGeometry>
        </mxCell>
        <mxCell id="pzWbAbZhniXZM056PuHU-3" value="" style="edgeStyle=orthogonalEdgeStyle;rounded=0;orthogonalLoop=1;jettySize=auto;html=1;" edge="1" parent="1" source="pzWbAbZhniXZM056PuHU-4" target="pzWbAbZhniXZM056PuHU-6">
          <mxGeometry relative="1" as="geometry" />
        </mxCell>
        <mxCell id="pzWbAbZhniXZM056PuHU-4" value="INICIO" style="ellipse;whiteSpace=wrap;html=1;" vertex="1" parent="1">
          <mxGeometry x="330" y="30" width="80" height="80" as="geometry" />
        </mxCell>
        <mxCell id="pzWbAbZhniXZM056PuHU-5" value="" style="edgeStyle=orthogonalEdgeStyle;rounded=0;orthogonalLoop=1;jettySize=auto;html=1;" edge="1" parent="1" source="pzWbAbZhniXZM056PuHU-6" target="pzWbAbZhniXZM056PuHU-8">
          <mxGeometry relative="1" as="geometry" />
        </mxCell>
        <mxCell id="pzWbAbZhniXZM056PuHU-6" value="UI = 1&lt;div&gt;result&lt;/div&gt;&lt;div&gt;i =1&lt;/div&gt;" style="whiteSpace=wrap;html=1;" vertex="1" parent="1">
          <mxGeometry x="310" y="140" width="120" height="60" as="geometry" />
        </mxCell>
        <mxCell id="pzWbAbZhniXZM056PuHU-7" value="" style="edgeStyle=orthogonalEdgeStyle;rounded=0;orthogonalLoop=1;jettySize=auto;html=1;" edge="1" parent="1" source="pzWbAbZhniXZM056PuHU-8" target="pzWbAbZhniXZM056PuHU-11">
          <mxGeometry relative="1" as="geometry" />
        </mxCell>
        <mxCell id="pzWbAbZhniXZM056PuHU-8" value="OUTPUT&lt;div&gt;&quot;U0 = 1&quot;&lt;/div&gt;" style="shape=parallelogram;perimeter=parallelogramPerimeter;whiteSpace=wrap;html=1;fixedSize=1;" vertex="1" parent="1">
          <mxGeometry x="310" y="230" width="120" height="60" as="geometry" />
        </mxCell>
        <mxCell id="pzWbAbZhniXZM056PuHU-9" value="" style="edgeStyle=orthogonalEdgeStyle;rounded=0;orthogonalLoop=1;jettySize=auto;html=1;" edge="1" parent="1" source="pzWbAbZhniXZM056PuHU-11" target="pzWbAbZhniXZM056PuHU-15">
          <mxGeometry relative="1" as="geometry" />
        </mxCell>
        <mxCell id="pzWbAbZhniXZM056PuHU-10" value="" style="edgeStyle=orthogonalEdgeStyle;rounded=0;orthogonalLoop=1;jettySize=auto;html=1;" edge="1" parent="1" source="pzWbAbZhniXZM056PuHU-11" target="pzWbAbZhniXZM056PuHU-18">
          <mxGeometry relative="1" as="geometry" />
        </mxCell>
        <mxCell id="pzWbAbZhniXZM056PuHU-11" value="10 &amp;gt;= i" style="rhombus;whiteSpace=wrap;html=1;fillColor=#fff2cc;strokeColor=#d6b656;" vertex="1" parent="1">
          <mxGeometry x="330" y="330" width="80" height="80" as="geometry" />
        </mxCell>
        <mxCell id="pzWbAbZhniXZM056PuHU-12" value="NO" style="text;html=1;align=center;verticalAlign=middle;resizable=0;points=[];autosize=1;strokeColor=none;fillColor=none;" vertex="1" parent="1">
          <mxGeometry x="400" y="338" width="40" height="30" as="geometry" />
        </mxCell>
        <mxCell id="pzWbAbZhniXZM056PuHU-13" value="SI" style="text;html=1;align=center;verticalAlign=middle;resizable=0;points=[];autosize=1;strokeColor=none;fillColor=none;" vertex="1" parent="1">
          <mxGeometry x="385" y="408" width="30" height="30" as="geometry" />
        </mxCell>
        <mxCell id="pzWbAbZhniXZM056PuHU-14" value="" style="edgeStyle=orthogonalEdgeStyle;rounded=0;orthogonalLoop=1;jettySize=auto;html=1;" edge="1" parent="1" source="pzWbAbZhniXZM056PuHU-15" target="pzWbAbZhniXZM056PuHU-17">
          <mxGeometry relative="1" as="geometry" />
        </mxCell>
        <mxCell id="pzWbAbZhniXZM056PuHU-15" value="result = UI / (i + 1)" style="whiteSpace=wrap;html=1;" vertex="1" parent="1">
          <mxGeometry x="310" y="450" width="120" height="60" as="geometry" />
        </mxCell>
        <mxCell id="pzWbAbZhniXZM056PuHU-16" value="" style="edgeStyle=orthogonalEdgeStyle;rounded=0;orthogonalLoop=1;jettySize=auto;html=1;" edge="1" parent="1" source="pzWbAbZhniXZM056PuHU-17" target="pzWbAbZhniXZM056PuHU-20">
          <mxGeometry relative="1" as="geometry" />
        </mxCell>
        <mxCell id="pzWbAbZhniXZM056PuHU-17" value="OUTPUT&lt;div&gt;&quot;U&quot;, i, &quot; = &quot;, UI&lt;/div&gt;" style="shape=parallelogram;perimeter=parallelogramPerimeter;whiteSpace=wrap;html=1;fixedSize=1;" vertex="1" parent="1">
          <mxGeometry x="310" y="540" width="120" height="60" as="geometry" />
        </mxCell>
        <mxCell id="pzWbAbZhniXZM056PuHU-18" value="FIN" style="ellipse;whiteSpace=wrap;html=1;" vertex="1" parent="1">
          <mxGeometry x="440" y="330" width="80" height="80" as="geometry" />
        </mxCell>
        <mxCell id="pzWbAbZhniXZM056PuHU-19" value="" style="edgeStyle=orthogonalEdgeStyle;rounded=0;orthogonalLoop=1;jettySize=auto;html=1;" edge="1" parent="1" source="pzWbAbZhniXZM056PuHU-20" target="pzWbAbZhniXZM056PuHU-22">
          <mxGeometry relative="1" as="geometry" />
        </mxCell>
        <mxCell id="pzWbAbZhniXZM056PuHU-20" value="UI = result" style="whiteSpace=wrap;html=1;" vertex="1" parent="1">
          <mxGeometry x="310" y="630" width="120" height="60" as="geometry" />
        </mxCell>
        <mxCell id="pzWbAbZhniXZM056PuHU-21" style="edgeStyle=orthogonalEdgeStyle;rounded=0;orthogonalLoop=1;jettySize=auto;html=1;entryX=0;entryY=0.5;entryDx=0;entryDy=0;" edge="1" parent="1" source="pzWbAbZhniXZM056PuHU-22" target="pzWbAbZhniXZM056PuHU-11">
          <mxGeometry relative="1" as="geometry">
            <Array as="points">
              <mxPoint x="250" y="370" />
            </Array>
          </mxGeometry>
        </mxCell>
        <mxCell id="pzWbAbZhniXZM056PuHU-22" value="++i" style="whiteSpace=wrap;html=1;" vertex="1" parent="1">
          <mxGeometry x="220" y="640" width="50" height="40" as="geometry" />
        </mxCell>
      </root>
    </mxGraphModel>
  </diagram>
</mxfile>
